<?xml version="1.0" encoding="UTF-8" standalone="no" ?>
<!DOCTYPE svg PUBLIC "-//W3C//DTD SVG 1.1//EN" "http://www.w3.org/Graphics/SVG/1.1/DTD/svg11.dtd">
<svg xmlns="http://www.w3.org/2000/svg" xmlns:xlink="http://www.w3.org/1999/xlink" version="1.1" width="120" height="120" viewBox="0 0 120 120" xml:space="preserve">
<desc>Created with Fabric.js 4.6.0</desc>
<defs>
</defs>
<g transform="matrix(7.81 0 0 7.81 60 60)" id="XQBAibAv2deGxJyjKZLne"  >
<path style="stroke: rgb(63,81,158); stroke-width: 4; stroke-dasharray: none; stroke-linecap: butt; stroke-dashoffset: 0; stroke-linejoin: miter; stroke-miterlimit: 4; fill: rgb(23,29,57); fill-rule: nonzero; opacity: 1;" vector-effect="non-scaling-stroke"  transform=" translate(0, 0)" d="M -7.42942 -7.42942 L 7.42942 -7.42942 L 7.42942 7.42942 L -7.42942 7.42942 z" stroke-linecap="round" />
</g>
<g transform="matrix(1 0 0 1 46.65 37.47)" id="9cFlXa9MzanXBrTIbyTHo"  >
<path style="stroke: rgb(0,0,0); stroke-width: 1; stroke-dasharray: none; stroke-linecap: butt; stroke-dashoffset: 0; stroke-linejoin: miter; stroke-miterlimit: 4; fill: rgb(49,168,247); fill-rule: nonzero; opacity: 1;" vector-effect="non-scaling-stroke"  transform=" translate(0, 0)" d="M -25.8287 22.5259 C -25.56174 -23.52527 25.8287 -22.524160000000002 25.8287 -22.524160000000002 L 25.8287 -6.773330000000001 L 17.15239 -6.773330000000001 L 17.15239 -10.510820000000002" stroke-linecap="round" />
</g>
<g transform="matrix(1 0 0 1 47.35 43.51)" id="zOWiVP3kOzvjFSznS1n8S"  >
<path style="stroke: rgb(0,0,0); stroke-width: 0; stroke-dasharray: none; stroke-linecap: butt; stroke-dashoffset: 0; stroke-linejoin: miter; stroke-miterlimit: 4; fill: rgb(244,39,157); fill-rule: nonzero; opacity: 1;" vector-effect="non-scaling-stroke"  transform=" translate(0, 0)" d="M 16.42362 -16.48884 C -19.40865 -16.23471 -16.359099999999998 16.48884 -16.359099999999998 16.48884" stroke-linecap="round" />
</g>
<g transform="matrix(1.01 0 0 -1 47 81.5)" id="A-ZV-OUrsBnK4CBBkMQQw"  >
<path style="stroke: rgb(0,0,0); stroke-width: 1; stroke-dasharray: none; stroke-linecap: butt; stroke-dashoffset: 0; stroke-linejoin: miter; stroke-miterlimit: 4; fill: rgb(108,59,244); fill-rule: nonzero; opacity: 1;" vector-effect="non-scaling-stroke"  transform=" translate(0, 0)" d="M -25.8287 22.5259 C -25.56174 -23.52527 25.8287 -22.524160000000002 25.8287 -22.524160000000002 L 25.8287 -6.773330000000001 L 17.15239 -6.773330000000001 L 17.15239 -10.510820000000002" stroke-linecap="round" />
</g>
<g transform="matrix(1 0 0 -1 47.35 75.96)" id="Sgwkupsx0-si0igWmQ75Z"  >
<path style="stroke: rgb(0,0,0); stroke-width: 1; stroke-dasharray: none; stroke-linecap: butt; stroke-dashoffset: 0; stroke-linejoin: miter; stroke-miterlimit: 4; fill: rgb(255,243,18); fill-rule: nonzero; opacity: 1;" vector-effect="non-scaling-stroke"  transform=" translate(0, 0)" d="M 16.42362 -16.48884 C -19.40865 -16.23471 -16.359099999999998 16.48884 -16.359099999999998 16.48884" stroke-linecap="round" />
</g>
</svg>